<svg width="657.9px" height="121.6px" xmlns="http://www.w3.org/2000/svg" viewBox="-78.96251220703124 14.199996948242188 657.9250244140625 121.60000610351562" style="background: rgba(0, 0, 0, 0)" preserveAspectRatio="xMidYMid"><defs><linearGradient id="editing-gradient-gradient" x1="0" x2="1" y1="0.5" y2="0.5" gradientUnits="objectBoundingBox"><stop offset="0" stop-color="#ae7cae"></stop><stop offset="1" stop-color="#73b4b4"></stop></linearGradient></defs><g><g transform="matrix(1.3,0,0,1.4,-42.1,152.9)"><path d="M -5.9 -39 L -19.8 -39 L -11.7 -81.2 L 2.4 -81.2 L -5.9 -39 Z M 49.9 -37.7 L 49.9 -37.7 L 49.9 -37.7 Q 42.1 -37.7 42.1 -43.7 L 42.1 -43.7 L 42.1 -43.7 Q 42.1 -46.4 43.2 -51.5 L 43.2 -51.5 L 43.2 -51.5 Q 44.4 -56.5 44.7 -58.6 L 44.7 -58.6 L 44.7 -58.6 Q 45.6 -63.3 45.6 -64.7 L 45.6 -64.7 L 45.6 -64.7 Q 45.6 -68 43.2 -68 L 43.2 -68 L 43.2 -68 Q 41.6 -68 40.1 -65.8 L 40.1 -65.8 L 40.1 -65.8 Q 38.5 -63.6 37.8 -59.2 L 37.8 -59.2 L 33.9 -39 L 21.4 -37.7 L 24.8 -55.1 L 24.8 -55.1 Q 25.4 -58 25.9 -61.3 L 25.9 -61.3 L 25.9 -61.3 Q 26.4 -64.5 26.4 -65.1 L 26.4 -65.1 L 26.4 -65.1 Q 26.4 -68 24.3 -68 L 24.3 -68 L 24.3 -68 Q 22.8 -68 21.2 -65.8 L 21.2 -65.8 L 21.2 -65.8 Q 19.6 -63.6 18.7 -59.2 L 18.7 -59.2 L 14.8 -39 L 2.2 -37.7 L 8.9 -71.6 L 19.3 -72.9 L 18.2 -66.5 L 18.2 -66.5 Q 19.9 -69.9 23 -71.4 L 23 -71.4 L 23 -71.4 Q 26.1 -72.9 30.9 -72.9 L 30.9 -72.9 L 30.9 -72.9 Q 33.6 -72.9 35.4 -71.6 L 35.4 -71.6 L 35.4 -71.6 Q 37.2 -70.2 37.8 -68.1 L 37.8 -68.1 L 37.8 -68.1 Q 38.9 -70.3 41.6 -71.6 L 41.6 -71.6 L 41.6 -71.6 Q 44.4 -72.9 47.8 -72.9 L 47.8 -72.9 L 47.8 -72.9 Q 51.3 -72.9 53 -72.2 L 53 -72.2 L 53 -72.2 Q 54.7 -71.5 55.7 -70.2 L 55.7 -70.2 L 55.7 -70.2 Q 57.4 -68 57.4 -63.9 L 57.4 -63.9 L 57.4 -63.9 Q 57.4 -59.9 55.7 -51.5 L 55.7 -51.5 L 55.7 -51.5 Q 54.8 -47.4 54.8 -45.9 L 54.8 -45.9 L 54.8 -45.9 Q 54.8 -44.4 55.7 -43.5 L 55.7 -43.5 L 55.7 -43.5 Q 56.5 -42.6 57.8 -42.5 L 57.8 -42.5 L 57.8 -42.5 Q 57.2 -40.3 55 -39 L 55 -39 L 55 -39 Q 52.7 -37.7 49.9 -37.7 Z M 65.5 -40.9 L 65.5 -40.9 L 65.5 -40.9 Q 64 -42.6 63.3 -45.2 L 63.3 -45.2 L 63.3 -45.2 Q 62.7 -47.8 62.7 -52.1 L 62.7 -52.1 L 62.7 -52.1 Q 62.7 -56.4 64.1 -60.3 L 64.1 -60.3 L 64.1 -60.3 Q 65.6 -64.2 68.3 -67 L 68.3 -67 L 68.3 -67 Q 73.8 -72.9 82.9 -72.9 L 82.9 -72.9 L 82.9 -72.9 Q 86.2 -72.9 88.5 -71.8 L 88.5 -71.8 L 99.5 -72.9 L 94.7 -48 L 94.7 -48 Q 94.5 -47.2 94.5 -45.8 L 94.5 -45.8 L 94.5 -45.8 Q 94.5 -44.4 95.4 -43.5 L 95.4 -43.5 L 95.4 -43.5 Q 96.3 -42.6 97.5 -42.5 L 97.5 -42.5 L 97.5 -42.5 Q 96.9 -40.3 94.6 -39 L 94.6 -39 L 94.6 -39 Q 92.2 -37.7 89.6 -37.7 L 89.6 -37.7 L 89.6 -37.7 Q 87 -37.7 85.2 -38.7 L 85.2 -38.7 L 85.2 -38.7 Q 83.5 -39.7 83 -41.4 L 83 -41.4 L 83 -41.4 Q 81.9 -39.8 79.8 -38.7 L 79.8 -38.7 L 79.8 -38.7 Q 77.6 -37.7 74.7 -37.7 L 74.7 -37.7 L 74.7 -37.7 Q 71.8 -37.7 69.4 -38.5 L 69.4 -38.5 L 69.4 -38.5 Q 67 -39.3 65.5 -40.9 Z M 79 -66.9 L 79 -66.9 L 79 -66.9 Q 78.3 -65.8 77.6 -63.8 L 77.6 -63.8 L 77.6 -63.8 Q 77 -61.9 75.9 -56.6 L 75.9 -56.6 L 75.9 -56.6 Q 74.9 -51.4 74.9 -47.7 L 74.9 -47.7 L 74.9 -47.7 Q 74.9 -44 75.5 -42.9 L 75.5 -42.9 L 75.5 -42.9 Q 76 -41.8 77.1 -41.8 L 77.1 -41.8 L 77.1 -41.8 Q 79.1 -41.8 80.6 -43.8 L 80.6 -43.8 L 80.6 -43.8 Q 82.1 -45.7 82.7 -49.2 L 82.7 -49.2 L 86.1 -67.9 L 86.1 -67.9 Q 84.7 -69.1 83.2 -69.1 L 83.2 -69.1 L 83.2 -69.1 Q 81.6 -69.1 80.7 -68.6 L 80.7 -68.6 L 80.7 -68.6 Q 79.8 -68.1 79 -66.9 Z M 107.2 -65.8 L 107.2 -65.8 L 107.2 -65.8 Q 109.4 -68.8 112.7 -70.9 L 112.7 -70.9 L 112.7 -70.9 Q 116 -72.9 120 -72.9 L 120 -72.9 L 120 -72.9 Q 124 -72.9 126 -71.6 L 126 -71.6 L 138.5 -72.9 L 134.2 -48.3 L 134.2 -48.3 Q 131.9 -35.8 127.2 -30.9 L 127.2 -30.9 L 127.2 -30.9 Q 122.6 -26.2 113.8 -26.2 L 113.8 -26.2 L 113.8 -26.2 Q 107.1 -26.2 103.2 -28.3 L 103.2 -28.3 L 103.2 -28.3 Q 99.4 -30.4 99.4 -33.9 L 99.4 -33.9 L 99.4 -33.9 Q 99.4 -36.6 101.4 -38.1 L 101.4 -38.1 L 101.4 -38.1 Q 103.4 -39.6 106.4 -39.6 L 106.4 -39.6 L 106.4 -39.6 Q 109.1 -39.6 111.2 -38.4 L 111.2 -38.4 L 111.2 -38.4 Q 112.4 -37.7 113 -36.8 L 113 -36.8 L 113 -36.8 Q 111.5 -35.5 111.5 -33.4 L 111.5 -33.4 L 111.5 -33.4 Q 111.5 -30.7 114.1 -30.7 L 114.1 -30.7 L 114.1 -30.7 Q 118.3 -30.7 120.8 -40.8 L 120.8 -40.8 L 120.8 -40.8 Q 121.5 -43.5 122.1 -46.3 L 122.1 -46.3 L 122.1 -46.3 Q 119.2 -42.8 112.6 -42.8 L 112.6 -42.8 L 112.6 -42.8 Q 108.1 -42.8 105.5 -45 L 105.5 -45 L 105.5 -45 Q 102.9 -47.1 102.9 -52.3 L 102.9 -52.3 L 102.9 -52.3 Q 102.9 -55.5 103.9 -59.1 L 103.9 -59.1 L 103.9 -59.1 Q 105 -62.7 107.2 -65.8 Z M 115.5 -52.1 L 115.5 -52.1 L 115.5 -52.1 Q 115.5 -47.7 117.8 -47.7 L 117.8 -47.7 L 117.8 -47.7 Q 119.3 -47.7 120.8 -49.4 L 120.8 -49.4 L 120.8 -49.4 Q 121.9 -50.7 122.4 -52.7 L 122.4 -52.7 L 125.6 -69.1 L 125.6 -69.1 Q 125.3 -69.2 125 -69.3 L 125 -69.3 L 125 -69.3 Q 124.4 -69.6 123.5 -69.6 L 123.5 -69.6 L 123.5 -69.6 Q 119.6 -69.6 117.3 -63.2 L 117.3 -63.2 L 117.3 -63.2 Q 115.5 -58.2 115.5 -52.1 Z M 166.9 -49.8 L 166.9 -49.8 L 166.9 -49.8 Q 168.5 -48.7 168.5 -46.3 L 168.5 -46.3 L 168.5 -46.3 Q 168.5 -43.9 167.3 -42.4 L 167.3 -42.4 L 167.3 -42.4 Q 166.1 -40.9 164.1 -39.8 L 164.1 -39.8 L 164.1 -39.8 Q 160 -37.7 155.6 -37.7 L 155.6 -37.7 L 155.6 -37.7 Q 151.2 -37.7 148.6 -38.7 L 148.6 -38.7 L 148.6 -38.7 Q 146 -39.6 144.3 -41.4 L 144.3 -41.4 L 144.3 -41.4 Q 140.9 -44.8 140.9 -51 L 140.9 -51 L 140.9 -51 Q 140.9 -60.7 146.1 -66.6 L 146.1 -66.6 L 146.1 -66.6 Q 151.8 -72.9 161.5 -72.9 L 161.5 -72.9 L 161.5 -72.9 Q 167.6 -72.9 170.6 -70.4 L 170.6 -70.4 L 170.6 -70.4 Q 172.9 -68.4 172.9 -65.3 L 172.9 -65.3 L 172.9 -65.3 Q 172.9 -54 153.4 -54 L 153.4 -54 L 153.4 -54 Q 153.2 -52.4 153.2 -51 L 153.2 -51 L 153.2 -51 Q 153.2 -48 154.5 -46.9 L 154.5 -46.9 L 154.5 -46.9 Q 155.8 -45.8 158.2 -45.8 L 158.2 -45.8 L 158.2 -45.8 Q 160.6 -45.8 163.2 -46.9 L 163.2 -46.9 L 163.2 -46.9 Q 165.8 -48 166.9 -49.8 Z M 153.9 -56.8 L 153.9 -56.8 L 153.9 -56.8 Q 158.4 -56.8 161 -59.6 L 161 -59.6 L 161 -59.6 Q 163.7 -62.3 163.7 -66.6 L 163.7 -66.6 L 163.7 -66.6 Q 163.7 -68.1 163.1 -68.9 L 163.1 -68.9 L 163.1 -68.9 Q 162.6 -69.7 161.5 -69.7 L 161.5 -69.7 L 161.5 -69.7 Q 160.4 -69.7 159.5 -69.2 L 159.5 -69.2 L 159.5 -69.2 Q 158.5 -68.8 157.6 -67.4 L 157.6 -67.4 L 157.6 -67.4 Q 155.2 -64.2 153.9 -56.8 Z M 194.2 -61.5 L 194.2 -61.5 L 194.2 -61.5 Q 195.1 -63.8 195.1 -65.9 L 195.1 -65.9 L 195.1 -65.9 Q 195.1 -69.7 192 -69.7 L 192 -69.7 L 192 -69.7 Q 190.4 -69.7 189.1 -68.2 L 189.1 -68.2 L 189.1 -68.2 Q 187.8 -66.8 187.8 -65 L 187.8 -65 L 187.8 -65 Q 187.8 -63.7 188.8 -62.7 L 188.8 -62.7 L 188.8 -62.7 Q 190.3 -61.3 194.1 -59 L 194.1 -59 L 194.1 -59 Q 197.8 -56.7 199.3 -54.8 L 199.3 -54.8 L 199.3 -54.8 Q 200.7 -52.9 200.7 -50.3 L 200.7 -50.3 L 200.7 -50.3 Q 200.7 -47.7 199.5 -45.3 L 199.5 -45.3 L 199.5 -45.3 Q 198.2 -43 196 -41.3 L 196 -41.3 L 196 -41.3 Q 191.2 -37.7 183.5 -37.7 L 183.5 -37.7 L 183.5 -37.7 Q 179.3 -37.7 176.1 -39.9 L 176.1 -39.9 L 176.1 -39.9 Q 172.9 -42 172.9 -44.5 L 172.9 -44.5 L 172.9 -44.5 Q 172.9 -47 174.8 -48.5 L 174.8 -48.5 L 174.8 -48.5 Q 176.6 -49.9 179.3 -49.9 L 179.3 -49.9 L 179.3 -49.9 Q 182 -49.9 183.6 -48.9 L 183.6 -48.9 L 183.6 -48.9 Q 182.8 -46.8 182.8 -45.4 L 182.8 -45.4 L 182.8 -45.4 Q 182.8 -41.2 186.4 -41.2 L 186.4 -41.2 L 186.4 -41.2 Q 187.9 -41.2 188.9 -42.1 L 188.9 -42.1 L 188.9 -42.1 Q 190 -43.1 190 -44.8 L 190 -44.8 L 190 -44.8 Q 190 -48 184.5 -51.5 L 184.5 -51.5 L 184.5 -51.5 Q 180 -54.4 179 -55.6 L 179 -55.6 L 179 -55.6 Q 177.2 -57.6 177.2 -60.2 L 177.2 -60.2 L 177.2 -60.2 Q 177.2 -62.7 178.4 -65.2 L 178.4 -65.2 L 178.4 -65.2 Q 179.7 -67.6 181.9 -69.3 L 181.9 -69.3 L 181.9 -69.3 Q 186.6 -72.9 194.7 -72.9 L 194.7 -72.9 L 194.7 -72.9 Q 198.9 -72.9 201.3 -71.3 L 201.3 -71.3 L 201.3 -71.3 Q 203.8 -69.6 203.8 -66.8 L 203.8 -66.8 L 203.8 -66.8 Q 203.8 -64 202.1 -62.4 L 202.1 -62.4 L 202.1 -62.4 Q 200.4 -60.8 197.3 -60.8 L 197.3 -60.8 L 197.3 -60.8 Q 195.2 -60.8 194.2 -61.5 Z M 245.3 -59.6 L 258.2 -60.8 L 258.2 -60.8 Q 253.6 -50.7 253.6 -38.9 L 253.6 -38.9 L 253.6 -38.9 Q 251.8 -37.7 249.3 -37.7 L 249.3 -37.7 L 249.3 -37.7 Q 246.8 -37.7 245.2 -38.9 L 245.2 -38.9 L 245.2 -38.9 Q 243.6 -40.1 243.3 -41.3 L 243.3 -41.3 L 243.3 -41.3 Q 241.7 -39.6 239.1 -38.7 L 239.1 -38.7 L 239.1 -38.7 Q 236.5 -37.7 233.7 -37.7 L 233.7 -37.7 L 233.7 -37.7 Q 231 -37.7 228.6 -38.6 L 228.6 -38.6 L 228.6 -38.6 Q 226.2 -39.5 224.3 -41.5 L 224.3 -41.5 L 224.3 -41.5 Q 220.2 -45.9 220.2 -54.1 L 220.2 -54.1 L 220.2 -54.1 Q 220.2 -66.9 227.1 -74.6 L 227.1 -74.6 L 227.1 -74.6 Q 234.1 -82.5 246.6 -82.5 L 246.6 -82.5 L 246.6 -82.5 Q 255.2 -82.5 258.3 -78 L 258.3 -78 L 258.3 -78 Q 259.3 -76.6 259.3 -74.9 L 259.3 -74.9 L 259.3 -74.9 Q 259.3 -73.2 258.5 -71.8 L 258.5 -71.8 L 258.5 -71.8 Q 257.8 -70.4 256.6 -69.2 L 256.6 -69.2 L 256.6 -69.2 Q 253.9 -66.7 250.5 -66.7 L 250.5 -66.7 L 250.5 -66.7 Q 249.2 -66.7 247.9 -67.1 L 247.9 -67.1 L 247.9 -67.1 Q 248.1 -69 248.1 -71.3 L 248.1 -71.3 L 248.1 -71.3 Q 248.1 -73.5 248 -74.5 L 248 -74.5 L 248 -74.5 Q 247.8 -75.5 247.4 -76.4 L 247.4 -76.4 L 247.4 -76.4 Q 246.6 -78.1 244.8 -78.1 L 244.8 -78.1 L 244.8 -78.1 Q 243 -78.1 240.9 -76.2 L 240.9 -76.2 L 240.9 -76.2 Q 238.9 -74.2 237.3 -71 L 237.3 -71 L 237.3 -71 Q 233.8 -63.8 233.8 -55.2 L 233.8 -55.2 L 233.8 -55.2 Q 233.8 -51.2 235.3 -48.4 L 235.3 -48.4 L 235.3 -48.4 Q 237 -45.3 239.9 -45.3 L 239.9 -45.3 L 239.9 -45.3 Q 241 -45.3 241.9 -45.9 L 241.9 -45.9 L 241.9 -45.9 Q 242.8 -46.4 243.2 -46.7 L 243.2 -46.7 L 245.3 -59.6 Z M 264.1 -40.9 L 264.1 -40.9 L 264.1 -40.9 Q 262.6 -42.6 261.9 -45.2 L 261.9 -45.2 L 261.9 -45.2 Q 261.3 -47.8 261.3 -52.1 L 261.3 -52.1 L 261.3 -52.1 Q 261.3 -56.4 262.7 -60.3 L 262.7 -60.3 L 262.7 -60.3 Q 264.2 -64.2 266.9 -67 L 266.9 -67 L 266.9 -67 Q 272.4 -72.9 281.5 -72.9 L 281.5 -72.9 L 281.5 -72.9 Q 284.7 -72.9 287.1 -71.8 L 287.1 -71.8 L 298.1 -72.9 L 293.3 -48 L 293.3 -48 Q 293.1 -47.2 293.1 -45.8 L 293.1 -45.8 L 293.1 -45.8 Q 293.1 -44.4 294 -43.5 L 294 -43.5 L 294 -43.5 Q 294.9 -42.6 296.1 -42.5 L 296.1 -42.5 L 296.1 -42.5 Q 295.5 -40.3 293.2 -39 L 293.2 -39 L 293.2 -39 Q 290.8 -37.7 288.2 -37.7 L 288.2 -37.7 L 288.2 -37.7 Q 285.6 -37.7 283.8 -38.7 L 283.8 -38.7 L 283.8 -38.7 Q 282.1 -39.7 281.5 -41.4 L 281.5 -41.4 L 281.5 -41.4 Q 280.5 -39.8 278.3 -38.7 L 278.3 -38.7 L 278.3 -38.7 Q 276.2 -37.7 273.3 -37.7 L 273.3 -37.7 L 273.3 -37.7 Q 270.3 -37.7 268 -38.5 L 268 -38.5 L 268 -38.5 Q 265.6 -39.3 264.1 -40.9 Z M 277.6 -66.9 L 277.6 -66.9 L 277.6 -66.9 Q 276.9 -65.8 276.2 -63.8 L 276.2 -63.8 L 276.2 -63.8 Q 275.6 -61.9 274.5 -56.6 L 274.5 -56.6 L 274.5 -56.6 Q 273.5 -51.4 273.5 -47.7 L 273.5 -47.7 L 273.5 -47.7 Q 273.5 -44 274.1 -42.9 L 274.1 -42.9 L 274.1 -42.9 Q 274.6 -41.8 275.7 -41.8 L 275.7 -41.8 L 275.7 -41.8 Q 277.7 -41.8 279.2 -43.8 L 279.2 -43.8 L 279.2 -43.8 Q 280.7 -45.7 281.3 -49.2 L 281.3 -49.2 L 284.7 -67.9 L 284.7 -67.9 Q 283.3 -69.1 281.8 -69.1 L 281.8 -69.1 L 281.8 -69.1 Q 280.2 -69.1 279.3 -68.6 L 279.3 -68.6 L 279.3 -68.6 Q 278.3 -68.1 277.6 -66.9 Z M 316.8 -42.5 L 316.8 -42.5 L 316.8 -42.5 Q 314.8 -37.7 308.5 -37.7 L 308.5 -37.7 L 308.5 -37.7 Q 305.3 -37.7 303.2 -40 L 303.2 -40 L 303.2 -40 Q 301.6 -41.8 301.6 -43.9 L 301.6 -43.9 L 301.6 -43.9 Q 301.6 -48.7 303.8 -59.2 L 303.8 -59.2 L 308.5 -83.8 L 321.5 -85.1 L 315.3 -52.7 L 315.3 -52.7 Q 314.2 -48 314.2 -46.3 L 314.2 -46.3 L 314.2 -46.3 Q 314.2 -42.7 316.8 -42.5 Z M 337.5 -42.5 L 337.5 -42.5 L 337.5 -42.5 Q 335.6 -37.7 329.2 -37.7 L 329.2 -37.7 L 329.2 -37.7 Q 326 -37.7 324 -40 L 324 -40 L 324 -40 Q 322.3 -41.8 322.3 -43.9 L 322.3 -43.9 L 322.3 -43.9 Q 322.3 -48.7 324.6 -59.2 L 324.6 -59.2 L 329.2 -83.8 L 342.2 -85.1 L 336 -52.7 L 336 -52.7 Q 334.9 -48 334.9 -46.3 L 334.9 -46.3 L 334.9 -46.3 Q 334.9 -42.7 337.5 -42.5 Z M 368.9 -49.8 L 368.9 -49.8 L 368.9 -49.8 Q 370.5 -48.7 370.5 -46.3 L 370.5 -46.3 L 370.5 -46.3 Q 370.5 -43.9 369.3 -42.4 L 369.3 -42.4 L 369.3 -42.4 Q 368.1 -40.9 366.1 -39.8 L 366.1 -39.8 L 366.1 -39.8 Q 362 -37.7 357.6 -37.7 L 357.6 -37.7 L 357.6 -37.7 Q 353.2 -37.7 350.6 -38.7 L 350.6 -38.7 L 350.6 -38.7 Q 348 -39.6 346.2 -41.4 L 346.2 -41.4 L 346.2 -41.4 Q 342.9 -44.8 342.9 -51 L 342.9 -51 L 342.9 -51 Q 342.9 -60.7 348.1 -66.6 L 348.1 -66.6 L 348.1 -66.6 Q 353.7 -72.9 363.5 -72.9 L 363.5 -72.9 L 363.5 -72.9 Q 369.6 -72.9 372.6 -70.4 L 372.6 -70.4 L 372.6 -70.4 Q 374.9 -68.4 374.9 -65.3 L 374.9 -65.3 L 374.9 -65.3 Q 374.9 -54 355.4 -54 L 355.4 -54 L 355.4 -54 Q 355.1 -52.4 355.1 -51 L 355.1 -51 L 355.1 -51 Q 355.1 -48 356.5 -46.9 L 356.5 -46.9 L 356.5 -46.9 Q 357.8 -45.8 360.2 -45.8 L 360.2 -45.8 L 360.2 -45.8 Q 362.6 -45.8 365.2 -46.9 L 365.2 -46.9 L 365.2 -46.9 Q 367.8 -48 368.9 -49.8 Z M 355.8 -56.8 L 355.8 -56.8 L 355.8 -56.8 Q 360.4 -56.8 363 -59.6 L 363 -59.6 L 363 -59.6 Q 365.6 -62.3 365.6 -66.6 L 365.6 -66.6 L 365.6 -66.6 Q 365.6 -68.1 365.1 -68.9 L 365.1 -68.9 L 365.1 -68.9 Q 364.6 -69.7 363.5 -69.7 L 363.5 -69.7 L 363.5 -69.7 Q 362.4 -69.7 361.4 -69.2 L 361.4 -69.2 L 361.4 -69.2 Q 360.5 -68.8 359.6 -67.4 L 359.6 -67.4 L 359.6 -67.4 Q 357.2 -64.2 355.8 -56.8 Z M 397.1 -57 L 397.1 -57 L 397.1 -57 Q 399.4 -61.1 399.4 -65.2 L 399.4 -65.2 L 399.4 -65.2 Q 399.4 -68 397.4 -68 L 397.4 -68 L 397.4 -68 Q 395.8 -68 394.2 -65.4 L 394.2 -65.4 L 394.2 -65.4 Q 392.6 -62.7 392.1 -59.4 L 392.1 -59.4 L 388.7 -39 L 375.5 -37.7 L 382 -71.6 L 392.6 -72.9 L 391.4 -66.5 L 391.4 -66.5 Q 394.6 -72.9 401.6 -72.9 L 401.6 -72.9 L 401.6 -72.9 Q 405.3 -72.9 407.3 -71 L 407.3 -71 L 407.3 -71 Q 409.4 -69.1 409.4 -65.1 L 409.4 -65.1 L 409.4 -65.1 Q 409.4 -61.2 406.8 -58.7 L 406.8 -58.7 L 406.8 -58.7 Q 404.2 -56.2 399.8 -56.2 L 399.8 -56.2 L 399.8 -56.2 Q 397.8 -56.2 397.1 -57 Z M 430.7 -46.2 L 430.7 -46.2 L 430.7 -46.2 Q 427.4 -42.8 421.3 -42.8 L 421.3 -42.8 L 421.3 -42.8 Q 413.7 -42.8 412.1 -48.3 L 412.1 -48.3 L 412.1 -48.3 Q 411.6 -50 411.6 -51.9 L 411.6 -51.9 L 411.6 -51.9 Q 411.6 -53.7 412 -55.6 L 412 -55.6 L 415 -71.6 L 428 -72.9 L 424.5 -54.3 L 424.5 -54.3 Q 424.3 -53.5 424.1 -52.6 L 424.1 -52.6 L 424.1 -52.6 Q 423.9 -51.7 423.9 -50.7 L 423.9 -50.7 L 423.9 -50.7 Q 423.9 -49.8 424.3 -49.2 L 424.3 -49.2 L 424.3 -49.2 Q 424.6 -48.6 425 -48.2 L 425 -48.2 L 425 -48.2 Q 425.8 -47.7 427.2 -47.7 L 427.2 -47.7 L 427.2 -47.7 Q 428.6 -47.7 429.7 -49.4 L 429.7 -49.4 L 429.7 -49.4 Q 430.9 -51 431.5 -53.9 L 431.5 -53.9 L 435 -71.6 L 447.6 -72.9 L 442.8 -47.8 L 442.8 -47.8 Q 440.5 -35.5 435.6 -30.6 L 435.6 -30.6 L 435.6 -30.6 Q 433.1 -28.1 429.9 -27.1 L 429.9 -27.1 L 429.9 -27.1 Q 426.6 -26.1 422.5 -26.1 L 422.5 -26.1 L 422.5 -26.1 Q 415.8 -26.1 411.9 -28.3 L 411.9 -28.3 L 411.9 -28.3 Q 408.1 -30.4 408.1 -33.9 L 408.1 -33.9 L 408.1 -33.9 Q 408.1 -36.5 410.1 -38 L 410.1 -38 L 410.1 -38 Q 412 -39.5 415.1 -39.5 L 415.1 -39.5 L 415.1 -39.5 Q 417.8 -39.5 419.8 -38.4 L 419.8 -38.4 L 419.8 -38.4 Q 421.1 -37.7 421.6 -36.8 L 421.6 -36.8 L 421.6 -36.8 Q 420.2 -35.5 420.2 -33.4 L 420.2 -33.4 L 420.2 -33.4 Q 420.2 -30.6 422.7 -30.6 L 422.7 -30.6 L 422.7 -30.6 Q 427 -30.6 429.4 -40.3 L 429.4 -40.3 L 429.4 -40.3 Q 430.1 -43.2 430.7 -46.2 Z" fill="url(#editing-gradient-gradient)"></path></g></g><style>text {
  font-size: 64px;
  font-family: Arial Black;
  dominant-baseline: central;
  text-anchor: middle;
}</style></svg>